<?xml version="1.0" standalone="no"?>
<!DOCTYPE svg PUBLIC "-//W3C//DTD SVG 20010904//EN"
 "http://www.w3.org/TR/2001/REC-SVG-20010904/DTD/svg10.dtd">
<svg version="1.0" xmlns="http://www.w3.org/2000/svg"
 width="477.000000pt" height="164.000000pt" viewBox="0 0 477.000000 164.000000"
 preserveAspectRatio="xMidYMid meet">

<g transform="translate(0.000000,164.000000) scale(0.100000,-0.100000)"
fill="#00429d" stroke="none">
<path d="M0 820 l0 -820 2385 0 2385 0 0 820 0 820 -2385 0 -2385 0 0 -820z
m908 756 c23 -16 57 -51 74 -78 l32 -49 55 7 c128 14 297 -53 407 -161 143
-141 187 -350 99 -479 -55 -81 -27 -162 97 -286 118 -119 266 -168 473 -157
232 12 435 105 604 277 36 36 135 159 222 275 214 287 326 393 515 488 421
211 967 13 1140 -413 55 -136 68 -350 29 -502 -39 -150 -138 -285 -259 -353
-109 -61 -199 -80 -376 -80 -175 0 -242 13 -369 73 -135 63 -248 203 -297 367
-26 88 -24 274 5 380 86 321 298 498 576 482 259 -15 453 -175 528 -437 90
-311 -14 -576 -262 -671 -178 -67 -360 -33 -497 94 -268 248 -166 741 162 785
245 33 471 -205 432 -455 -21 -136 -115 -223 -241 -223 -68 0 -116 20 -172 71
-61 56 -88 118 -89 199 0 79 28 134 80 156 44 18 68 18 111 -3 45 -21 73 -67
73 -120 0 -69 -62 -102 -109 -57 -21 19 4 46 40 42 16 -2 28 0 29 5 4 67 -30
107 -91 107 -29 0 -43 -6 -63 -31 -33 -38 -40 -68 -32 -126 26 -191 256 -278
371 -141 44 52 58 95 57 178 -1 143 -73 260 -204 330 -55 30 -72 34 -138 34
-88 1 -144 -21 -209 -80 -88 -78 -126 -190 -118 -342 4 -81 9 -102 41 -168
104 -209 300 -294 530 -228 144 41 256 173 287 339 23 123 -13 310 -83 435
-73 130 -155 199 -294 246 -71 24 -90 26 -191 22 -104 -4 -116 -7 -186 -41
-139 -69 -254 -224 -302 -407 -26 -99 -30 -251 -11 -335 51 -218 200 -367 423
-426 109 -29 307 -29 415 0 118 31 185 67 256 137 73 73 124 172 149 287 21
102 13 297 -17 392 -78 248 -274 427 -555 506 -112 32 -276 32 -394 0 -167
-44 -337 -146 -462 -277 -31 -33 -122 -148 -203 -257 -160 -216 -268 -336
-363 -403 -237 -170 -582 -217 -825 -112 -64 27 -153 98 -208 164 -22 27 -43
48 -47 47 -4 -1 -14 -26 -23 -55 -50 -161 -158 -268 -314 -313 -72 -21 -194
-16 -269 10 l-48 17 -67 -33 c-161 -79 -358 -38 -513 108 -209 198 -289 531
-191 800 36 98 70 152 137 219 62 62 190 127 285 145 50 9 73 19 100 44 57 53
88 66 155 62 46 -2 70 -10 103 -31z"/>
<path d="M725 1576 c-16 -7 -38 -22 -48 -33 -17 -20 -16 -20 66 -26 45 -4 115
-15 154 -25 66 -17 71 -17 63 -1 -13 24 -78 79 -107 90 -34 13 -93 11 -128 -5z"/>
<path d="M565 1489 c-225 -41 -382 -187 -442 -412 -24 -86 -23 -280 1 -366 57
-207 178 -365 346 -448 66 -33 85 -38 165 -41 74 -3 100 0 147 17 82 32 87 41
33 80 -25 18 -63 56 -85 84 -43 58 -100 172 -100 201 0 19 -1 19 -20 1 -13
-11 -41 -20 -75 -23 -66 -5 -133 24 -213 94 -62 54 -144 174 -167 244 -62 186
32 306 180 233 17 -9 52 -34 79 -56 l49 -40 52 54 53 55 0 100 c1 71 7 117 21
164 11 35 19 65 18 65 -1 1 -20 -2 -42 -6z"/>
<path d="M630 1481 c-22 -42 -40 -139 -40 -215 l0 -80 63 61 c85 84 164 136
254 169 l76 28 -39 14 c-62 21 -180 42 -245 42 -47 0 -60 -4 -69 -19z"/>
<path d="M1161 1374 c184 -122 305 -285 364 -486 9 -32 18 -58 20 -58 13 0 36
53 45 100 21 109 -29 250 -118 339 -82 81 -259 161 -356 161 l-39 0 84 -56z"/>
<path d="M926 1395 c-87 -30 -158 -77 -254 -169 l-76 -73 19 -118 c25 -151 31
-160 73 -101 63 87 170 142 299 153 l75 6 -6 65 c-9 81 -32 192 -48 230 l-13
30 -69 -23z"/>
<path d="M1034 1398 c25 -80 36 -134 46 -219 l12 -96 67 -21 c36 -12 83 -32
103 -45 53 -31 130 -109 185 -183 25 -35 50 -61 55 -58 28 18 -21 183 -92 304
-56 96 -200 239 -298 298 -40 23 -75 42 -78 42 -4 0 -3 -10 0 -22z"/>
<path d="M183 1136 c-27 -23 -28 -29 -28 -108 0 -76 3 -90 39 -162 70 -144
222 -267 325 -265 l46 1 -39 9 c-94 22 -141 92 -141 210 1 65 5 85 34 144 l34
69 -48 43 c-93 82 -171 102 -222 59z"/>
<path d="M526 1076 l-35 -44 55 -52 c30 -29 57 -51 58 -49 6 7 -28 189 -35
189 -4 0 -23 -20 -43 -44z"/>
<path d="M930 1053 c-52 -10 -147 -61 -187 -102 -55 -55 -62 -79 -33 -101 65
-49 286 -140 340 -140 11 0 20 10 24 30 8 41 -4 281 -16 303 -9 17 -65 21
-128 10z"/>
<path d="M1094 1033 c3 -10 7 -89 8 -175 l3 -157 44 -7 c63 -10 182 3 247 26
31 11 59 22 62 25 10 10 -90 145 -140 190 -49 44 -147 98 -201 110 -24 5 -28
3 -23 -12z"/>
<path d="M450 978 c-33 -54 -42 -96 -38 -168 3 -51 9 -76 28 -104 40 -58 113
-83 156 -52 16 12 19 29 22 118 l4 104 -76 68 -75 67 -21 -33z"/>
<path d="M666 831 c-13 -20 -17 -163 -7 -210 24 -112 104 -231 194 -288 l39
-25 40 39 c48 46 102 154 123 246 16 70 14 87 -10 87 -38 0 -209 65 -287 109
-49 27 -90 46 -92 42z"/>
<path d="M1425 700 c-58 -27 -169 -43 -250 -37 l-70 6 -22 -91 c-26 -109 -60
-180 -114 -242 l-41 -46 29 -11 c52 -20 143 -28 206 -18 171 27 300 153 342
333 15 62 14 69 -2 96 -20 34 -24 35 -78 10z"/>
</g>
</svg>
